<?xml version="1.0" encoding="UTF-8" standalone="no"?>
<svg
   xmlns:dc="http://purl.org/dc/elements/1.1/"
   xmlns:cc="http://creativecommons.org/ns#"
   xmlns:rdf="http://www.w3.org/1999/02/22-rdf-syntax-ns#"
   xmlns:svg="http://www.w3.org/2000/svg"
   xmlns="http://www.w3.org/2000/svg"
   xmlns:xlink="http://www.w3.org/1999/xlink"
   xmlns:sodipodi="http://sodipodi.sourceforge.net/DTD/sodipodi-0.dtd"
   xmlns:inkscape="http://www.inkscape.org/namespaces/inkscape"
   version="1.1"
   width="821.47601"
   height="720"
   viewBox="0 0 821.47601 720"
   id="svg2"
   inkscape:version="0.48.5 r10040"
   sodipodi:docname="Flag_of_Rwanda.svg">
  <metadata
     id="metadata26">
    <rdf:RDF>
      <cc:Work
         rdf:about="">
        <dc:format>image/svg+xml</dc:format>
        <dc:type
           rdf:resource="http://purl.org/dc/dcmitype/StillImage" />
      </cc:Work>
    </rdf:RDF>
  </metadata>
  <defs
     id="defs24">
    <clipPath
       clipPathUnits="userSpaceOnUse"
       id="clipPath3789">
      <polygon
         transform="matrix(1.4212396,0,0,1.4212396,195.27884,-61.823904)"
         style="opacity:0.56031123;fill:#ffffea"
         points="566.5,414.5 569.2,413.1 570.8,412.8 574.8,414.2 576.2,416.1 578,418.4 579.5,419.3 583.2,420.1 585.4,422 586.9,422.2 589.9,421.1 592.4,418.4 595.9,416 599.7,415.7 600.6,415 603,411.2 604.1,409.2 606.5,404.8 608.1,404.7 608.7,403.5 609.8,403 610.9,401.8 610.6,401.3 609.1,400.9 608.3,397.9 610,393.8 609.9,392.6 608.6,389.7 608.4,387.6 607.4,377.1 608,375.2 608.1,372.6 608.9,371.4 608.5,369.1 609,366.8 610,363.8 612,359.8 613.5,354.5 614.4,353.5 615.9,351.8 617.1,349.2 618.2,343.6 622.4,337.2 622.5,334.1 617.2,323.6 616.2,322.9 615.4,321.9 612.2,317.7 606.1,308.9 596.8,291.4 595.6,292 593.5,292.3 593,294.7 591.6,294 589.9,294.6 589.7,294.1 590.6,291.7 591.8,290.5 593.7,289 595.6,288.8 597.5,286.7 598.5,284 599.8,282 600,280.3 599.6,277.7 602.1,274.3 602.4,273.7 603,272.6 603.3,271.2 602.6,268.2 600.5,267.7 599.4,266.8 599.1,266 601.6,263.4 601.8,262.6 602.2,258.6 601.1,251.7 601.2,249.7 603.4,246.4 604.2,244.1 603.9,242.4 603.6,240.6 602.5,238.9 598.8,236.3 601.8,232.1 601.1,230.3 601.3,225.8 600.4,221.7 601.8,218.6 604.1,217.5 604.5,216.4 604.2,214 603.9,211.8 601.5,208.2 593.9,197.1 580.7,179.1 579.6,177.6 577.6,161.5 577,157.5 576.2,155.3 572.6,151 567.9,147.9 566.6,147.1 561.6,142.3 559.3,141.8 558.3,139.5 556.4,139.2 542.7,134.3 540.2,128.9 540.1,128.6 539,127.2 538.1,126.9 534.8,127.3 531.3,125.6 527.2,124.5 526.7,121.5 523.6,116 523.8,113.9 524.7,110.6 523.7,108.5 521.2,105.3 520.6,101.2 519.6,97.9 515.9,91.5 515,87.7 513.7,86.5 513.4,84.4 512,83.6 512.1,82.2 511.4,80.7 509.6,77.4 508.5,76.8 501.4,76.4 500.8,75.8 500.1,71.4 502.8,64 502.4,63.5 500.1,63.2 497.9,62.3 496.8,60.8 496.7,59.9 497.4,57.6 498.3,54.5 498,53.3 503.7,46 499.3,44 496.8,43.6 496,44.7 494.1,43.5 493.2,43.8 490.6,46.2 488.5,46.8 481.4,46.8 479.8,47.6 478.8,47.6 473.9,46.5 471.3,45.4 471,45.5 468.6,46.4 467.3,47.7 466.9,50 467.1,52.1 464.9,56.7 464.4,59.1 464.4,62.6 464.8,65.8 461.9,66.3 460.4,67 458.6,68.5 454.9,70.1 453.1,72 450.9,83.3 449.8,83.5 448.9,85.3 446.8,86 446.2,87.2 446.3,87.8 446.4,88.2 445.1,90.1 438.2,93.6 436.9,97.3 434.6,100.4 427.9,105.1 425.1,105.1 424.4,109.2 422.6,109.3 419.6,107.2 418.2,107.2 415.9,108.8 415.7,110.1 416.2,111.8 417,114.5 416.8,115.8 414.1,120.5 413.8,122 413.8,127.3 413,128.9 411.9,129.8 410.2,129.9 408.7,129.2 406.8,130.1 405.5,133.5 403.1,136.5 401.9,137.3 400.1,137.3 395.6,137.1 391.1,138 389.6,138.9 387.4,141.1 384,142.3 383.2,143 382.8,144.3 382.8,146.1 384.1,148.2 383.9,149.9 383.4,151.1 381.9,152 379.5,152.3 377.4,150.4 376.8,149.2 376.4,148.5 375.6,147.9 374.5,148 373.2,148.5 371.2,150.3 368.5,153 348.3,164.4 347.2,165 346.2,165.6 344,165.3 342.9,164.2 341.8,161.7 338.5,156.3 335.7,150 335.4,145.5 333.6,138.4 333.7,135.3 333.7,133.1 333.1,131.6 330.8,130.2 328,130.4 319.7,117.9 319.2,117.6 317.2,117.6 316.5,118.5 314.1,123.7 312.7,125.3 311.2,127 309.6,132.3 308.6,132.8 307.4,133.1 304.3,132.6 300.7,128.3 297.9,126.5 289.5,126.5 287.9,126.9 285,128.5 284.3,128.9 276.9,137 274,138.9 268.7,139.3 257.9,138.8 254.7,139 253.8,139.6 251.2,140.4 249.4,140.2 248.2,140 244.7,140.1 232.3,147.4 232.6,149.5 231.9,151.8 229.4,153.1 226.3,155.4 222.7,159.4 221.6,160.5 214.1,170.1 213.8,170.5 201.9,170.4 193.7,170.8 192.5,171.3 189.9,172.6 187.6,174.2 186.1,175.7 183.6,182.1 179.1,187.1 173.6,196.8 171.5,199.1 169.2,201.6 165.8,204 160.3,209.3 158.4,214.1 154.9,219.3 154,222.9 153.2,224.2 153.3,226.3 154.3,226.9 154.3,227.6 154.4,228 153.2,229.6 151.4,230.7 149.5,232.8 145.2,238.5 143.4,239.8 142.3,241.2 139.5,246.5 132.9,255.7 127.4,263.2 122.4,273.4 120.9,278.5 121.7,288.3 121.8,290.5 124.4,302.7 124.4,303.9 128.7,315.7 128.8,316.2 130.7,322.8 133.4,331.9 135,339 134.9,345 134.4,348.3 132.8,353.8 130.9,357.3 122.5,372.5 121.4,374.4 116,382.1 114.9,384.7 112.5,387.9 109.9,391.2 106.2,393.2 101.9,394.5 92.4,393.5 89.6,393.5 87.7,394.2 86.8,395.7 83.6,398.8 82.7,400.8 82.2,401.7 82.1,403.6 80.9,406.7 79.1,409.7 75.5,413.2 73.5,418 72.5,418.6 70.7,418.8 61.2,417.3 58.1,417.9 55.9,418.8 54.6,419.9 51.9,423.7 48.4,430.6 47.5,433.2 47.3,437 47.5,439.4 49.1,443.7 52.9,446.9 53.2,447.6 54.1,448.7 54.2,450.8 53.9,452.9 52.9,455 51.5,456.3 45.8,459.7 44.7,460.8 44.5,462 44.9,463 47.2,465.7 54.2,471.1 55.3,473.8 57.5,492.5 57.2,496.1 55.4,497.6 55.1,498.9 55.5,499.9 58.5,501.1 62.4,505 62.9,505.6 66.5,506.6 69.2,508.4 72.1,509.4 74.9,511.4 76,510.7 79.3,510.6 84.5,512.9 89.7,517 92.1,520.3 92.6,521.4 94.2,524.3 96,522.7 96.6,519.6 97.9,516.5 99,511.9 99.2,510 99.3,509 98.4,500.4 98.6,499.1 100.1,496.2 100.3,494.5 98.9,491.4 98.3,488.3 99.7,486 100.6,482.7 101.3,482.3 104.4,481.9 106.8,479.6 110.5,481.4 114.9,481.2 117.9,483.1 119.9,483.4 121,483.3 123.6,480.9 125.4,480.2 127.6,480.4 128.7,481 131,483.9 132.9,485.8 137.8,487.4 139.4,487.9 141.7,487.7 144.8,488.3 149.2,490 150.5,490.1 154.9,488.9 159.4,488.8 163.1,490.7 165.5,492.6 169,493.7 172,495.7 173.1,496.2 174.8,496.3 176.8,496.5 178,497.2 178.6,498.1 179.5,502.9 178.5,505.7 178.5,505.8 178.3,507.9 179.7,510 183,513.1 183.2,516.3 185.4,520 186.1,522.3 185.8,523.5 183.4,525.4 181.7,526.7 181.1,528.5 182.9,532.3 184.4,533.8 186,536.5 186,538.8 185,540.9 185,541.8 189,547.5 189.1,549.8 189.6,550.1 191.6,549.7 193.7,545.4 194.2,544.3 197,542.4 200.8,543 202.3,542.8 205.2,541.8 207.3,540 210.4,539 211.4,539 213,539 216.3,541.4 224.3,543.3 225.9,544 226.5,544.3 230.7,548.1 234.1,549.1 236.3,548.7 238.5,547.5 240.2,545.8 247.1,541.8 251.6,541 251.9,540.9 257.8,541.2 259.1,541.3 263.4,540.3 263.4,540.2 266.2,537.4 267.7,536.8 268,536.8 271,536.9 280,542.6 281.3,542.9 282.9,544.8 285.6,544.2 287.9,543.2 295.4,542.5 296.3,541.6 298.3,537.8 298.5,537.5 300.2,532.2 299.9,530.8 300.4,529.8 303,529.6 308.3,527.7 310.2,527.8 311.9,529.1 312.8,531 314.1,532.1 316.3,532.2 318.4,533.9 321.9,530.6 323.5,530.2 325,529.3 330.9,528.9 331.7,528.2 332.5,526.3 334.8,525.1 336,523.8 336.8,521.5 343.1,512.8 345.2,505.7 346.4,504.6 347.4,499.8 348.4,497.6 349.1,496 348.9,494.2 347.4,491.7 348,488 347.7,480.2 345.5,474.7 345.6,471.7 345.6,470.7 346.1,469.2 348.5,464.9 349.1,460.6 350.8,455.5 351.8,454.3 353.7,453 357.4,451.5 358.4,448 358,440.9 357.8,437.3 356,430.6 355.2,424.3 353,419.1 352.7,417.6 353.2,414.6 355.2,411.1 355.3,406.5 355.4,405.7 356.7,404.1 356.7,404.1 357.3,404.1 362.8,407.2 366.4,410.2 368.5,410.4 375.4,410.9 379.4,413.6 382.9,417.3 384.1,419.2 386.6,423.3 393.1,430 398.5,434.3 403.7,436.1 406,436.3 407.7,436 412.6,434.6 416.6,433.4 418.1,432.7 420.8,430.4 424.4,424.2 426.4,421.6 429.2,419.6 429.6,418.4 430,412.8 430.5,411.6 431.3,410.9 432.5,410.7 434.2,411.9 439.1,415.1 444.7,416.6 448.5,417 454.5,416.8 458.9,414.8 464.8,414.6 468,413.1 471.2,411.7 471.6,411 473,408.8 474.4,406.6 475.9,402.8 476.9,401.6 480,399.8 481.6,399.7 483.3,400.4 486.3,403.8 488.4,405 490.5,405 493.3,403.3 494.6,403.1 496.2,402.9 496.6,403.3 496.1,406.4 496.4,407.8 497.6,409.7 498.5,410.4 499.9,414.1 504.3,417.3 506.2,417.8 509.9,419.7 513.4,423.8 518,424.3 518.3,424.3 521.2,426.2 526.1,427.5 528.5,430.3 530.6,430 536.5,426.3 541,424.7 544.6,425.6 547.7,425.7 550,427.3 552.5,428.7 554.3,428.8 555.5,428.3 556.8,425.6 560.1,422.7 563.8,415.6 564.9,414.8 "
         id="polygon3791" />
    </clipPath>
  </defs>
  <sodipodi:namedview
     pagecolor="#ffffff"
     bordercolor="#666666"
     borderopacity="1"
     objecttolerance="10"
     gridtolerance="10"
     guidetolerance="10"
     inkscape:pageopacity="0"
     inkscape:pageshadow="2"
     inkscape:window-width="1366"
     inkscape:window-height="716"
     id="namedview22"
     showgrid="false"
     fit-margin-top="0"
     fit-margin-left="0"
     fit-margin-right="0"
     fit-margin-bottom="0"
     inkscape:zoom="0.5"
     inkscape:cx="702.57151"
     inkscape:cy="290"
     inkscape:window-x="-8"
     inkscape:window-y="-8"
     inkscape:window-maximized="1"
     inkscape:current-layer="svg2" />
  <title
     id="title4">Flag of Rwanda</title>
  <g
     id="g3003"
     clip-path="url(#clipPath3789)"
     transform="translate(-258.524,-1.86e-5)">
    <rect
       id="rect6"
       height="360"
       width="1080"
       x="0"
       y="0"
       style="fill:#00a1de" />
    <rect
       id="rect8"
       height="180"
       width="1080"
       y="360"
       x="0"
       style="fill:#fad201" />
    <rect
       id="rect10"
       height="180"
       width="1080"
       y="540"
       x="0"
       style="fill:#20603d" />
    <g
       id="g12"
       transform="translate(886.5,188.1)">
      <g
         id="h">
        <path
           d="M 116.1,0 35.69202,4.69894 112.14399,30.04889 33.25966,13.7766 100.54555,58.05 28.56072,21.91541 82.0951,82.0951 21.91541,28.56072 58.05,100.54555 13.7766,33.25966 30.04889,112.14399 4.69894,35.69202 0,116.1 -1,-1 z"
           id="q"
           inkscape:connector-curvature="0"
           style="fill:#e5be01" />
        <use
           id="use16"
           transform="scale(1,-1)"
           xlink:href="#q"
           x="0"
           y="0"
           width="1080"
           height="720" />
      </g>
      <use
         id="use18"
         transform="scale(-1,1)"
         xlink:href="#h"
         x="0"
         y="0"
         width="1080"
         height="720" />
      <circle
         id="circle20"
         r="34.299999"
         d="M 34.299999,0 C 34.299999,18.943366 18.943366,34.299999 0,34.299999 -18.943366,34.299999 -34.299999,18.943366 -34.299999,0 c 0,-18.943366 15.356633,-34.299999 34.299999,-34.299999 18.943366,0 34.299999,15.356633 34.299999,34.299999 z"
         cx="0"
         cy="0"
         sodipodi:cx="0"
         sodipodi:cy="0"
         sodipodi:rx="34.299999"
         sodipodi:ry="34.299999"
         style="fill:#e5be01;stroke:#00a1de;stroke-width:3.4000001" />
    </g>
  </g>
</svg>
